<svg width="58" height="31" viewBox="0 0 58 31" fill="none" xmlns="http://www.w3.org/2000/svg">
<path d="M11.6191 25.6855H7.38074C5.57123 25.6855 4.8957 24.0821 4.8957 21.8717L4.89266 10.3425H0V21.8717C0 26.8254 3.449 30.5593 8.02287 30.5593H16.5194V10.3425H11.6191V25.6855Z" fill="white"/>
<path d="M24.9355 15.2163H29.1738C30.9834 15.2163 31.6589 16.8197 31.6589 19.0301L31.6604 30.5593H36.5531V19.0301C36.5531 14.0764 33.1041 10.3425 28.5302 10.3425H20.0337V30.5593H24.9339V15.2163H24.9355Z" fill="white"/>
<path d="M40.0719 30.5591H45.0496V8.71631L40.0719 10.7787V30.5591Z" fill="white"/>
<path d="M57.7374 26.5989L57.7025 26.6004C57.3336 26.6488 56.9343 26.6714 56.5184 26.6714C55.433 26.6714 54.6618 26.374 54.2246 25.7882C53.7707 25.1782 53.54 24.1213 53.54 22.6462V14.561H57.997V10.3425H53.54V5.19849L48.5638 7.26093V22.6839C48.5638 23.9673 48.6777 25.1253 48.9024 26.1279C49.1301 27.15 49.5308 28.0348 50.0925 28.7565C50.6572 29.4857 51.4314 30.0504 52.3924 30.4324C53.3396 30.8099 54.5313 31.0001 55.9309 31.0001C56.5806 31.0001 57.2 30.9594 57.7738 30.8808L57.9985 30.8491V26.5989H57.7374Z" fill="white"/>
<path d="M40.0719 0V6.94979L45.0496 4.88735V0H40.0719Z" fill="white"/>
</svg>
